<svg t="1694672455245" class="icon" viewBox="0 0 1024 1024" version="1.1" xmlns="http://www.w3.org/2000/svg" p-id="876" width="200" height="200"><path d="M746.496 576c94.208 0 170.496 76.288 170.496 170.496v106.496c0 35.328-28.672 64-64 64H170.496c-35.328 0-64-28.672-64-64v-106.496c0-94.208 76.288-170.496 170.496-170.496h469.504z m0 64H277.504c-57.344 0-103.936 45.056-106.496 101.888v111.104h682.496v-106.496c0-58.88-48.128-106.496-107.008-106.496zM512 64c129.536 0 234.496 104.96 234.496 234.496 0 127.488-101.888 231.424-228.352 234.496H512c-129.536 0-234.496-104.96-234.496-234.496 0-127.488 101.888-231.424 228.352-234.496h6.144z m0 64c-94.208 0-170.496 76.288-170.496 170.496S417.792 469.504 512 469.504s170.496-76.288 170.496-170.496c0-94.72-76.288-171.008-170.496-171.008z"  p-id="877"></path></svg>